# xmcd CD database file
#
# Track frame offsets:
#	159961
#	160711
#	161461
#	162211
#	162961
#	163711
#	164461
#	165211
#	165961
#	166711
#	167461
#	168211
#	180361
#
# Disc length: 2450 seconds
#
# Revision: 0
# Processed by: cddbd v1.5.1PL0 Copyright (c) Steve Scherf et al.
# Submitted via: CDex 1.40Release
#
DISCID=7f013e0d
DTITLE=Truck Stop - Grosse Freiheit
DYEAR=2004
DGENRE=Country
TTITLE0=Fahr einfach los
TTITLE1=Die Rechnung bitte!
TTITLE2=Durch Sachsen ohne Anhalt
TTITLE3=Eckernförde
TTITLE4=Dann mach ich's richtig
TTITLE5=Deine Sorgen möcht ich haben
TTITLE6=Highway nach Tennessee
TTITLE7=Truckertraum
TTITLE8=Kennst du einen, kennst du alle
TTITLE9=Ich bleib wie ich bin
TTITLE10=AKH !!
TTITLE11=Wenn Trucker weinen
TTITLE12=DatenTrack
EXTD=YEAR: 2004 ID3G: 2
EXTT0=
EXTT1=
EXTT2=
EXTT3=
EXTT4=
EXTT5=
EXTT6=
EXTT7=
EXTT8=
EXTT9=
EXTT10=
EXTT11=
EXTT12=
PLAYORDER=
